<svg xmlns="http://www.w3.org/2000/svg" xmlns:xlink="http://www.w3.org/1999/xlink" width="500" zoomAndPan="magnify" viewBox="0 0 375 374.999991" height="500" preserveAspectRatio="xMidYMid meet" version="1.0"><defs><g/><clipPath id="3ac8033c33"><path d="M 48.28125 48.28125 L 326.71875 48.28125 L 326.71875 326.71875 L 48.28125 326.71875 Z M 48.28125 48.28125 " clip-rule="nonzero"/></clipPath><clipPath id="467a060057"><path d="M 187.5 48.28125 C 110.613281 48.28125 48.28125 110.613281 48.28125 187.5 C 48.28125 264.386719 110.613281 326.71875 187.5 326.71875 C 264.386719 326.71875 326.71875 264.386719 326.71875 187.5 C 326.71875 110.613281 264.386719 48.28125 187.5 48.28125 Z M 187.5 48.28125 " clip-rule="nonzero"/></clipPath><clipPath id="88f8e304fa"><path d="M 48.28125 48.28125 L 326.53125 48.28125 L 326.53125 326.53125 L 48.28125 326.53125 Z M 48.28125 48.28125 " clip-rule="nonzero"/></clipPath><clipPath id="f4f0e3bd39"><path d="M 187.496094 48.28125 C 110.609375 48.28125 48.28125 110.609375 48.28125 187.496094 C 48.28125 264.378906 110.609375 326.707031 187.496094 326.707031 C 264.378906 326.707031 326.707031 264.378906 326.707031 187.496094 C 326.707031 110.609375 264.378906 48.28125 187.496094 48.28125 Z M 187.496094 48.28125 " clip-rule="nonzero"/></clipPath><clipPath id="18aa9c14ea"><path d="M 58.527344 58.527344 L 316.527344 58.527344 L 316.527344 316.527344 L 58.527344 316.527344 Z M 58.527344 58.527344 " clip-rule="nonzero"/></clipPath><clipPath id="5b275ec5d8"><path d="M 113.40625 113.40625 L 261.59375 113.40625 L 261.59375 261.59375 L 113.40625 261.59375 Z M 113.40625 113.40625 " clip-rule="nonzero"/></clipPath><clipPath id="fd1d3f42bd"><path d="M 187.5 113.40625 C 146.578125 113.40625 113.40625 146.578125 113.40625 187.5 C 113.40625 228.421875 146.578125 261.59375 187.5 261.59375 C 228.421875 261.59375 261.59375 228.421875 261.59375 187.5 C 261.59375 146.578125 228.421875 113.40625 187.5 113.40625 Z M 187.5 113.40625 " clip-rule="nonzero"/></clipPath><clipPath id="a8561f1d11"><path d="M 113.40625 113.40625 L 261.589844 113.40625 L 261.589844 261.589844 L 113.40625 261.589844 Z M 113.40625 113.40625 " clip-rule="nonzero"/></clipPath><clipPath id="5ecae84c0b"><path d="M 187.5 113.40625 C 146.578125 113.40625 113.40625 146.578125 113.40625 187.5 C 113.40625 228.417969 146.578125 261.589844 187.5 261.589844 C 228.417969 261.589844 261.589844 228.417969 261.589844 187.5 C 261.589844 146.578125 228.417969 113.40625 187.5 113.40625 Z M 187.5 113.40625 " clip-rule="nonzero"/></clipPath><clipPath id="d7fe4896a5"><path d="M 148.863281 147 L 173 147 L 173 194 L 148.863281 194 Z M 148.863281 147 " clip-rule="nonzero"/></clipPath><clipPath id="b70acd9cf7"><path d="M 179 132.011719 L 196 132.011719 L 196 194 L 179 194 Z M 179 132.011719 " clip-rule="nonzero"/></clipPath><clipPath id="90a4ac3de2"><path d="M 178 132.011719 L 189 132.011719 L 189 194 L 178 194 Z M 178 132.011719 " clip-rule="nonzero"/></clipPath><clipPath id="9127f189f9"><path d="M 186 132.011719 L 196 132.011719 L 196 194 L 186 194 Z M 186 132.011719 " clip-rule="nonzero"/></clipPath><clipPath id="fb860467a9"><path d="M 202 147 L 226.113281 147 L 226.113281 194 L 202 194 Z M 202 147 " clip-rule="nonzero"/></clipPath><clipPath id="248ea0f056"><path d="M 83.269531 183.339844 L 102.019531 183.339844 L 102.019531 201.339844 L 83.269531 201.339844 Z M 83.269531 183.339844 " clip-rule="nonzero"/></clipPath><clipPath id="8979a482e9"><path d="M 272.5625 187.5 L 291.3125 187.5 L 291.3125 205.5 L 272.5625 205.5 Z M 272.5625 187.5 " clip-rule="nonzero"/></clipPath></defs><g clip-path="url(#3ac8033c33)"><g clip-path="url(#467a060057)"><path fill="#00a616" d="M 48.28125 48.28125 L 326.71875 48.28125 L 326.71875 326.71875 L 48.28125 326.71875 Z M 48.28125 48.28125 " fill-opacity="1" fill-rule="nonzero"/></g></g><g clip-path="url(#88f8e304fa)"><g clip-path="url(#f4f0e3bd39)"><path stroke-linecap="butt" transform="matrix(0.75, 0, 0, 0.75, 48.282167, 48.282162)" fill="none" stroke-linejoin="miter" d="M 185.618581 -0.00121657 C 83.10295 -0.00121657 -0.00122257 83.102956 -0.00122257 185.618587 C -0.00122257 288.129011 83.10295 371.233183 185.618581 371.233183 C 288.129005 371.233183 371.233177 288.129011 371.233177 185.618587 C 371.233177 83.102956 288.129005 -0.00121657 185.618581 -0.00121657 Z M 185.618581 -0.00121657 " stroke="#000000" stroke-width="16" stroke-opacity="1" stroke-miterlimit="4"/></g></g><g clip-path="url(#18aa9c14ea)"><path fill="#ffffff" d="M 187.496094 316.46875 C 116.246094 316.46875 58.527344 258.351562 58.527344 187.496094 C 58.527344 116.644531 116.246094 58.527344 187.496094 58.527344 C 258.75 58.527344 316.46875 116.246094 316.46875 187.496094 C 316.46875 258.75 258.351562 316.46875 187.496094 316.46875 Z M 187.496094 66.488281 C 120.625 66.488281 66.488281 120.625 66.488281 187.496094 C 66.488281 254.371094 120.625 308.507812 187.496094 308.507812 C 254.371094 308.507812 308.507812 254.371094 308.507812 187.496094 C 308.507812 120.625 253.972656 66.488281 187.496094 66.488281 Z M 187.496094 66.488281 " fill-opacity="1" fill-rule="nonzero"/></g><g clip-path="url(#5b275ec5d8)"><g clip-path="url(#fd1d3f42bd)"><path fill="#ffffff" d="M 113.40625 113.40625 L 261.59375 113.40625 L 261.59375 261.59375 L 113.40625 261.59375 Z M 113.40625 113.40625 " fill-opacity="1" fill-rule="nonzero"/></g></g><g clip-path="url(#a8561f1d11)"><g clip-path="url(#5ecae84c0b)"><path stroke-linecap="butt" transform="matrix(0.75, 0, 0, 0.75, 113.406897, 113.406893)" fill="none" stroke-linejoin="miter" d="M 98.790817 -0.000856737 C 44.22831 -0.000856737 -0.000862737 44.228316 -0.000862737 98.790823 C -0.000862737 153.348121 44.22831 197.577294 98.790817 197.577294 C 153.348115 197.577294 197.577288 153.348121 197.577288 98.790823 C 197.577288 44.228316 153.348115 -0.000856737 98.790817 -0.000856737 Z M 98.790817 -0.000856737 " stroke="#000000" stroke-width="16" stroke-opacity="1" stroke-miterlimit="4"/></g></g><path fill="#ffffff" d="M 168.738281 193.257812 C 168.738281 193.257812 146.957031 155.453125 149.710938 147.984375 C 149.710938 147.984375 159.640625 153.910156 164.984375 167.261719 C 169.40625 178.359375 171.949219 193.257812 171.949219 193.257812 Z M 168.738281 193.257812 " fill-opacity="1" fill-rule="nonzero"/><g clip-path="url(#d7fe4896a5)"><path fill="#000000" d="M 149.75 147.316406 C 149.878906 147.316406 149.960938 147.355469 150.085938 147.398438 C 150.503906 147.648438 160.265625 153.617188 165.609375 167.011719 C 169.988281 178.027344 172.578125 192.964844 172.617188 193.132812 C 172.660156 193.300781 172.617188 193.507812 172.492188 193.632812 C 172.367188 193.757812 172.203125 193.84375 172.035156 193.84375 L 168.820312 193.84375 C 168.613281 193.84375 168.402344 193.71875 168.277344 193.507812 C 168.238281 193.425781 162.769531 183.910156 157.722656 173.644531 C 150.878906 159.707031 148 150.988281 149.210938 147.691406 C 149.292969 147.523438 149.417969 147.398438 149.585938 147.316406 C 149.585938 147.355469 149.667969 147.316406 149.75 147.316406 Z M 171.199219 192.632812 C 170.617188 189.503906 168.195312 177.027344 164.398438 167.511719 C 160.058594 156.621094 152.507812 150.652344 150.128906 148.984375 C 149.292969 156.246094 163.230469 182.367188 169.113281 192.632812 Z M 171.199219 192.632812 " fill-opacity="1" fill-rule="nonzero"/></g><path fill="#ffffff" d="M 175.496094 193.257812 C 175.496094 193.257812 151.503906 158.414062 156.554688 140.929688 C 156.554688 140.929688 177.082031 153.40625 177.332031 193.257812 Z M 175.496094 193.257812 " fill-opacity="1" fill-rule="nonzero"/><path fill="#000000" d="M 156.554688 140.304688 C 156.679688 140.304688 156.761719 140.347656 156.886719 140.390625 C 157.097656 140.515625 162.1875 143.683594 167.402344 151.820312 C 172.160156 159.292969 177.835938 172.519531 177.960938 193.257812 C 177.960938 193.425781 177.875 193.59375 177.792969 193.71875 C 177.667969 193.84375 177.5 193.882812 177.332031 193.882812 L 175.496094 193.882812 C 175.289062 193.882812 175.082031 193.800781 174.996094 193.632812 C 174.957031 193.550781 168.90625 184.746094 163.5625 173.9375 C 156.386719 159.332031 153.800781 148.191406 155.96875 140.765625 C 156.011719 140.597656 156.179688 140.429688 156.34375 140.347656 C 156.429688 140.304688 156.511719 140.304688 156.554688 140.304688 Z M 176.707031 192.632812 C 176.332031 158.25 160.519531 144.601562 156.972656 141.972656 C 153.214844 158.414062 173.660156 189.417969 175.832031 192.632812 Z M 176.707031 192.632812 " fill-opacity="1" fill-rule="nonzero"/><path fill="#ffffff" d="M 180.628906 193.257812 C 180.628906 193.257812 161.769531 155.117188 169.238281 138.46875 C 169.238281 138.46875 187.933594 153.785156 182.550781 193.257812 Z M 180.628906 193.257812 " fill-opacity="1" fill-rule="nonzero"/><path fill="#000000" d="M 169.238281 137.84375 C 169.363281 137.84375 169.53125 137.886719 169.65625 137.96875 C 169.863281 138.136719 174.496094 141.972656 178.503906 150.777344 C 182.175781 158.832031 185.972656 172.769531 183.175781 193.300781 C 183.132812 193.59375 182.882812 193.84375 182.550781 193.84375 L 180.628906 193.84375 C 180.378906 193.84375 180.171875 193.71875 180.089844 193.507812 C 180.046875 193.425781 175.289062 183.785156 171.574219 172.269531 C 166.527344 156.703125 165.523438 145.230469 168.738281 138.21875 C 168.820312 138.050781 168.988281 137.925781 169.15625 137.886719 C 169.15625 137.84375 169.195312 137.84375 169.238281 137.84375 Z M 182.007812 192.632812 C 184.636719 172.726562 180.964844 159.25 177.375 151.40625 C 174.328125 144.726562 170.867188 140.929688 169.488281 139.554688 C 163.480469 155.242188 179.210938 188.835938 181.046875 192.632812 Z M 182.007812 192.632812 " fill-opacity="1" fill-rule="nonzero"/><g clip-path="url(#b70acd9cf7)"><path fill="#ffffff" d="M 185.554688 193.382812 L 189.058594 193.382812 C 189.058594 193.382812 197.988281 153.949219 194.316406 144.394531 C 191.1875 136.257812 187.347656 132.628906 187.347656 132.628906 C 187.347656 132.628906 183.382812 136.257812 180.253906 144.394531 C 176.625 153.992188 185.554688 193.382812 185.554688 193.382812 Z M 185.554688 193.382812 " fill-opacity="1" fill-rule="nonzero"/></g><g clip-path="url(#90a4ac3de2)"><path fill="#000000" d="M 187.390625 132 C 187.558594 132 187.722656 132.085938 187.847656 132.210938 C 188.101562 132.460938 188.058594 132.878906 187.808594 133.085938 C 187.765625 133.128906 183.886719 136.675781 180.878906 144.5625 C 177.542969 153.242188 185.054688 188.082031 186.054688 192.632812 L 187.433594 192.632812 C 187.765625 192.632812 188.058594 192.925781 188.058594 193.257812 C 188.058594 193.59375 187.765625 193.882812 187.433594 193.882812 L 185.554688 193.882812 C 185.261719 193.882812 185.011719 193.675781 184.929688 193.382812 C 184.554688 191.753906 176 153.742188 179.710938 144.101562 C 182.84375 135.925781 186.804688 132.292969 186.972656 132.125 C 187.097656 132.042969 187.222656 132 187.390625 132 Z M 187.390625 132 " fill-opacity="1" fill-rule="nonzero"/></g><g clip-path="url(#9127f189f9)"><path fill="#000000" d="M 187.390625 132 C 187.558594 132 187.683594 132.042969 187.808594 132.167969 C 187.972656 132.335938 191.8125 135.925781 194.941406 144.144531 C 198.613281 153.742188 190.0625 191.796875 189.726562 193.425781 C 189.644531 193.71875 189.394531 193.925781 189.101562 193.925781 L 187.222656 193.925781 C 186.890625 193.925781 186.597656 193.632812 186.597656 193.300781 C 186.597656 192.964844 186.890625 192.671875 187.222656 192.671875 L 188.601562 192.671875 C 189.601562 188.125 197.113281 153.324219 193.773438 144.601562 C 190.769531 136.714844 187.015625 133.128906 186.972656 133.128906 C 186.722656 132.878906 186.722656 132.503906 186.929688 132.25 C 187.054688 132.042969 187.222656 132 187.390625 132 Z M 187.390625 132 " fill-opacity="1" fill-rule="nonzero"/></g><path fill="#ffffff" d="M 206.210938 193.257812 C 206.210938 193.257812 227.992188 155.453125 225.238281 147.984375 C 225.238281 147.984375 215.304688 153.910156 209.964844 167.261719 C 205.542969 178.359375 202.996094 193.257812 202.996094 193.257812 Z M 206.210938 193.257812 " fill-opacity="1" fill-rule="nonzero"/><g clip-path="url(#fb860467a9)"><path fill="#000000" d="M 225.238281 147.316406 C 225.320312 147.316406 225.363281 147.316406 225.445312 147.355469 C 225.613281 147.398438 225.78125 147.566406 225.820312 147.734375 C 227.03125 151.03125 224.195312 159.75 217.308594 173.6875 C 212.261719 183.953125 206.792969 193.464844 206.753906 193.550781 C 206.625 193.757812 206.417969 193.882812 206.210938 193.882812 L 202.996094 193.882812 C 202.828125 193.882812 202.621094 193.800781 202.539062 193.675781 C 202.414062 193.550781 202.371094 193.339844 202.414062 193.175781 C 202.453125 193.007812 205 178.109375 209.421875 167.054688 C 214.765625 153.660156 224.527344 147.691406 224.945312 147.441406 C 225.027344 147.355469 225.152344 147.316406 225.238281 147.316406 Z M 205.875 192.632812 C 211.757812 182.367188 225.65625 156.246094 224.863281 148.984375 C 222.484375 150.652344 214.929688 156.578125 210.589844 167.511719 C 206.792969 177.027344 204.375 189.542969 203.789062 192.632812 Z M 205.875 192.632812 " fill-opacity="1" fill-rule="nonzero"/></g><path fill="#ffffff" d="M 199.492188 193.257812 C 199.492188 193.257812 223.484375 158.414062 218.4375 140.929688 C 218.4375 140.929688 197.90625 153.40625 197.65625 193.257812 Z M 199.492188 193.257812 " fill-opacity="1" fill-rule="nonzero"/><path fill="#000000" d="M 218.394531 140.304688 C 218.476562 140.304688 218.5625 140.304688 218.601562 140.347656 C 218.769531 140.429688 218.9375 140.554688 218.976562 140.765625 C 221.148438 148.191406 218.5625 159.332031 211.382812 173.9375 C 206.042969 184.746094 200.035156 193.507812 199.949219 193.632812 C 199.824219 193.800781 199.660156 193.882812 199.449219 193.882812 L 197.613281 193.882812 C 197.445312 193.882812 197.28125 193.800781 197.15625 193.71875 C 197.03125 193.59375 196.988281 193.425781 196.988281 193.257812 C 197.113281 172.519531 202.789062 159.292969 207.546875 151.820312 C 212.761719 143.683594 217.894531 140.515625 218.101562 140.390625 C 218.1875 140.347656 218.3125 140.304688 218.394531 140.304688 Z M 199.15625 192.632812 C 201.328125 189.417969 221.816406 158.414062 218.019531 141.972656 C 216.433594 143.144531 212.511719 146.398438 208.589844 152.574219 C 204 159.832031 198.488281 172.601562 198.28125 192.632812 Z M 199.15625 192.632812 " fill-opacity="1" fill-rule="nonzero"/><path fill="#ffffff" d="M 194.359375 193.257812 C 194.359375 193.257812 213.21875 155.117188 205.75 138.46875 C 205.75 138.46875 187.054688 153.785156 192.441406 193.257812 Z M 194.359375 193.257812 " fill-opacity="1" fill-rule="nonzero"/><path fill="#ffffff" d="M 172.703125 221.046875 L 202.578125 221.046875 C 202.578125 230.1875 202.414062 242.371094 187.558594 242.371094 C 172.703125 242.371094 172.703125 230.230469 172.703125 221.046875 Z M 172.703125 221.046875 " fill-opacity="1" fill-rule="nonzero"/><path fill="#000000" d="M 205.75 137.84375 C 205.792969 137.84375 205.835938 137.84375 205.875 137.84375 C 206.085938 137.886719 206.210938 138.011719 206.292969 138.175781 C 209.464844 145.230469 208.503906 156.664062 203.414062 172.226562 C 199.660156 183.742188 194.941406 193.382812 194.902344 193.464844 C 194.777344 193.675781 194.566406 193.800781 194.359375 193.800781 L 192.441406 193.800781 C 192.105469 193.800781 191.855469 193.550781 191.8125 193.257812 C 189.019531 172.726562 192.816406 158.789062 196.488281 150.738281 C 200.492188 141.933594 205.125 138.09375 205.332031 137.925781 C 205.457031 137.886719 205.625 137.84375 205.75 137.84375 Z M 193.984375 192.632812 C 195.820312 188.835938 211.550781 155.242188 205.542969 139.554688 C 204.164062 140.929688 200.660156 144.726562 197.65625 151.40625 C 194.109375 159.25 190.4375 172.726562 193.023438 192.632812 Z M 193.984375 192.632812 " fill-opacity="1" fill-rule="nonzero"/><path fill="#000000" d="M 172.703125 221.046875 L 172.703125 213.289062 L 202.414062 213.289062 L 202.578125 220.507812 L 202.578125 221.046875 Z M 172.703125 221.046875 " fill-opacity="1" fill-rule="nonzero"/><path fill="#000000" d="M 172.078125 212.660156 L 203.039062 212.660156 L 203.207031 221.675781 L 172.078125 221.675781 Z M 201.785156 213.914062 L 173.328125 213.914062 L 173.328125 220.421875 L 201.953125 220.421875 Z M 201.785156 213.914062 " fill-opacity="1" fill-rule="nonzero"/><path fill="#000000" d="M 172.078125 220.421875 L 203.207031 220.421875 L 203.207031 221.046875 C 203.164062 229.8125 203.164062 242.996094 187.558594 242.996094 C 180.714844 242.996094 176.289062 240.535156 173.996094 235.402344 C 172.078125 231.105469 172.078125 225.765625 172.078125 221.046875 Z M 201.953125 221.675781 L 173.328125 221.675781 C 173.328125 226.097656 173.410156 231.023438 175.121094 234.902344 C 177.167969 239.492188 181.257812 241.746094 187.558594 241.746094 C 201.578125 241.746094 201.910156 230.355469 201.953125 221.675781 Z M 201.953125 221.675781 " fill-opacity="1" fill-rule="nonzero"/><path fill="#ffffff" d="M 206.585938 206.027344 L 168.277344 206.027344 L 168.277344 202.898438 L 206.585938 202.898438 Z M 206.585938 206.027344 " fill-opacity="1" fill-rule="nonzero"/><path fill="#000000" d="M 167.652344 202.269531 L 207.210938 202.269531 L 207.210938 206.652344 L 167.652344 206.652344 Z M 205.960938 203.523438 L 168.90625 203.523438 L 168.90625 205.402344 L 205.960938 205.402344 Z M 205.960938 203.523438 " fill-opacity="1" fill-rule="nonzero"/><path fill="#ffffff" d="M 210.464844 196.386719 L 164.316406 196.386719 L 164.316406 193.257812 L 210.464844 193.257812 Z M 210.464844 196.386719 " fill-opacity="1" fill-rule="nonzero"/><path fill="#000000" d="M 163.6875 192.632812 L 211.09375 192.632812 L 211.09375 197.011719 L 163.6875 197.011719 Z M 209.839844 193.882812 L 164.941406 193.882812 L 164.941406 195.761719 L 209.839844 195.761719 Z M 209.839844 193.882812 " fill-opacity="1" fill-rule="nonzero"/><path fill="#000000" d="M 174.433594 213.523438 L 167.921875 193.4375 L 169.113281 193.050781 L 175.625 213.136719 Z M 174.433594 213.523438 " fill-opacity="1" fill-rule="nonzero"/><path fill="#000000" d="M 188.058594 213.289062 L 186.804688 213.289062 L 186.804688 193.257812 L 188.058594 193.257812 Z M 188.058594 213.289062 " fill-opacity="1" fill-rule="nonzero"/><path fill="#000000" d="M 178.257812 213.4375 L 174.582031 193.367188 L 175.8125 193.140625 L 179.488281 213.214844 Z M 178.257812 213.4375 " fill-opacity="1" fill-rule="nonzero"/><path fill="#000000" d="M 182.300781 213.382812 L 180.046875 193.316406 L 181.289062 193.175781 L 183.546875 213.246094 Z M 182.300781 213.382812 " fill-opacity="1" fill-rule="nonzero"/><path fill="#000000" d="M 200.578125 213.550781 L 199.386719 213.164062 L 205.917969 192.996094 L 207.109375 193.382812 Z M 200.578125 213.550781 " fill-opacity="1" fill-rule="nonzero"/><path fill="#000000" d="M 196.925781 213.488281 L 195.695312 213.261719 L 199.382812 193.148438 L 200.613281 193.375 Z M 196.925781 213.488281 " fill-opacity="1" fill-rule="nonzero"/><path fill="#000000" d="M 192.46875 213.378906 L 191.222656 213.238281 L 193.5 193.171875 L 194.742188 193.3125 Z M 192.46875 213.378906 " fill-opacity="1" fill-rule="nonzero"/><g clip-path="url(#248ea0f056)"><path fill="#ffffff" d="M 92.699219 183.339844 L 95.125 188.800781 C 95.21875 189.007812 95.367188 189.191406 95.550781 189.324219 C 95.738281 189.460938 95.953125 189.542969 96.183594 189.566406 L 102.125 190.191406 L 97.683594 194.1875 C 97.511719 194.339844 97.386719 194.535156 97.316406 194.753906 C 97.242188 194.972656 97.230469 195.203125 97.28125 195.429688 L 98.523438 201.273438 L 93.351562 198.28125 C 93.152344 198.167969 92.925781 198.109375 92.699219 198.109375 C 92.46875 198.109375 92.242188 198.167969 92.042969 198.28125 L 86.871094 201.273438 L 88.117188 195.429688 C 88.164062 195.203125 88.152344 194.972656 88.082031 194.753906 C 88.007812 194.535156 87.882812 194.339844 87.710938 194.1875 L 83.269531 190.191406 L 89.210938 189.566406 C 89.441406 189.542969 89.660156 189.460938 89.84375 189.324219 C 90.03125 189.191406 90.175781 189.007812 90.269531 188.800781 Z M 92.699219 183.339844 " fill-opacity="1" fill-rule="evenodd"/></g><g fill="#ffffff" fill-opacity="1"><g transform="translate(138.013975, 111.563765)"><g><path d="M 7.96875 -4.453125 L 4.5 -6.6875 L 4.40625 -6.640625 L 2.234375 -5.421875 L 4.015625 -2.234375 L 1.125 -0.625 L -5.1875 -11.953125 L -0.125 -14.78125 C 1.382812 -15.625 2.738281 -15.929688 3.9375 -15.703125 C 5.132812 -15.472656 6.082031 -14.722656 6.78125 -13.453125 C 7.757812 -11.710938 7.757812 -10.117188 6.78125 -8.671875 L 11.234375 -6.265625 Z M 0.96875 -7.6875 L 3.140625 -8.90625 C 3.773438 -9.257812 4.175781 -9.6875 4.34375 -10.1875 C 4.519531 -10.695312 4.441406 -11.25 4.109375 -11.84375 C 3.785156 -12.425781 3.367188 -12.769531 2.859375 -12.875 C 2.347656 -12.988281 1.773438 -12.867188 1.140625 -12.515625 L -1.03125 -11.296875 Z M 0.96875 -7.6875 "/></g></g></g><g fill="#ffffff" fill-opacity="1"><g transform="translate(148.806518, 105.426733)"><g><path d="M 8.40625 -5.78125 L 3.109375 -3.75 L 3.078125 -1.1875 L -0.09375 0.03125 L 0.5 -14.078125 L 3.65625 -15.296875 L 13.40625 -5.140625 L 10.125 -3.875 Z M 6.609375 -7.765625 L 3.15625 -11.578125 L 3.109375 -6.421875 Z M 6.609375 -7.765625 "/></g></g></g><g fill="#ffffff" fill-opacity="1"><g transform="translate(161.201745, 100.654718)"><g><path d="M 4.25 -14.40625 C 5.195312 -14.625 6.164062 -14.644531 7.15625 -14.46875 C 8.15625 -14.289062 9.046875 -13.945312 9.828125 -13.4375 L 8.484375 -10.8125 C 7.960938 -11.21875 7.378906 -11.503906 6.734375 -11.671875 C 6.085938 -11.835938 5.488281 -11.859375 4.9375 -11.734375 C 3.925781 -11.503906 3.164062 -10.957031 2.65625 -10.09375 C 2.144531 -9.238281 2.007812 -8.289062 2.25 -7.25 C 2.488281 -6.1875 3.023438 -5.378906 3.859375 -4.828125 C 4.703125 -4.285156 5.628906 -4.128906 6.640625 -4.359375 C 7.171875 -4.472656 7.6875 -4.726562 8.1875 -5.125 C 8.695312 -5.519531 9.125 -5.992188 9.46875 -6.546875 L 11.796875 -4.984375 C 11.265625 -4.140625 10.582031 -3.398438 9.75 -2.765625 C 8.914062 -2.128906 8.035156 -1.703125 7.109375 -1.484375 C 5.210938 -1.046875 3.484375 -1.300781 1.921875 -2.25 C 0.367188 -3.195312 -0.617188 -4.59375 -1.046875 -6.4375 C -1.460938 -8.269531 -1.164062 -9.941406 -0.15625 -11.453125 C 0.851562 -12.972656 2.320312 -13.957031 4.25 -14.40625 Z M 4.25 -14.40625 "/></g></g></g><g fill="#ffffff" fill-opacity="1"><g transform="translate(172.734443, 97.895943)"><g><path d="M 9.71875 -0.859375 L 5.828125 -5.640625 L 4.296875 -3.578125 L 4.578125 -0.40625 L 1.296875 -0.109375 L 0.15625 -13.03125 L 3.4375 -13.328125 L 3.921875 -7.734375 L 8.390625 -13.765625 L 12.1875 -14.109375 L 7.859375 -8.328125 L 13.640625 -1.21875 Z M 9.71875 -0.859375 "/></g></g></g><g fill="#ffffff" fill-opacity="1"><g transform="translate(185.564479, 96.736522)"><g><path d="M 11.921875 -9.8125 L 5.078125 -10.140625 L 4.96875 -7.5625 L 11.140625 -7.265625 L 11.015625 -4.6875 L 4.84375 -4.984375 L 4.71875 -2.375 L 11.765625 -2.046875 L 11.640625 0.546875 L 1.296875 0.0625 L 1.90625 -12.890625 L 12.046875 -12.40625 Z M 11.921875 -9.8125 "/></g></g></g><g fill="#ffffff" fill-opacity="1"><g transform="translate(197.170633, 97.267333)"><g><path d="M 12.8125 -8.265625 L 8.9375 -8.9375 L 7.1875 1.234375 L 3.9375 0.671875 L 5.6875 -9.5 L 1.875 -10.15625 L 2.328125 -12.78125 L 13.265625 -10.890625 Z M 12.8125 -8.265625 "/></g></g></g><g fill="#ffffff" fill-opacity="1"><g transform="translate(207.734332, 99.200985)"><g/></g></g><g fill="#ffffff" fill-opacity="1"><g transform="translate(211.311452, 99.824611)"><g><path d="M 12.46875 4.53125 L 9.375 3.40625 L 11.09375 -1.34375 L 6.03125 -3.1875 L 4.3125 1.5625 L 1.21875 0.4375 L 5.640625 -11.75 L 8.734375 -10.625 L 6.921875 -5.625 L 11.984375 -3.78125 L 13.796875 -8.78125 L 16.890625 -7.65625 Z M 12.46875 4.53125 "/></g></g></g><g fill="#ffffff" fill-opacity="1"><g transform="translate(224.034602, 104.335526)"><g><path d="M 12.421875 6.34375 L 12.484375 8.6875 C 11.828125 8.84375 11.140625 8.867188 10.421875 8.765625 C 9.710938 8.660156 9.070312 8.453125 8.5 8.140625 C 7.71875 7.710938 7.128906 7.097656 6.734375 6.296875 C 6.335938 5.492188 6.175781 4.585938 6.25 3.578125 C 4.5625 2.609375 3.457031 1.257812 2.9375 -0.46875 C 2.425781 -2.195312 2.617188 -3.875 3.515625 -5.5 C 4.421875 -7.164062 5.757812 -8.21875 7.53125 -8.65625 C 9.300781 -9.101562 11.0625 -8.847656 12.8125 -7.890625 C 14.582031 -6.921875 15.75 -5.570312 16.3125 -3.84375 C 16.882812 -2.113281 16.71875 -0.421875 15.8125 1.234375 C 15.125 2.472656 14.171875 3.394531 12.953125 4 C 11.742188 4.601562 10.445312 4.800781 9.0625 4.59375 C 9.1875 5.34375 9.503906 5.851562 10.015625 6.125 C 10.554688 6.425781 11.359375 6.5 12.421875 6.34375 Z M 8.703125 -5.734375 C 7.722656 -5.429688 6.972656 -4.804688 6.453125 -3.859375 C 5.929688 -2.910156 5.804688 -1.929688 6.078125 -0.921875 C 6.359375 0.078125 6.9375 0.816406 7.8125 1.296875 C 8.6875 1.773438 9.609375 1.851562 10.578125 1.53125 C 11.554688 1.207031 12.304688 0.570312 12.828125 -0.375 C 13.347656 -1.320312 13.476562 -2.285156 13.21875 -3.265625 C 12.957031 -4.253906 12.390625 -4.988281 11.515625 -5.46875 C 10.628906 -5.957031 9.691406 -6.046875 8.703125 -5.734375 Z M 8.703125 -5.734375 "/></g></g></g><g fill="#ffffff" fill-opacity="1"><g transform="translate(160.292079, 289.243973)"><g><path d="M 6.5625 -15.1875 C 8.0625 -15.1875 9.289062 -14.820312 10.25 -14.09375 C 11.207031 -13.375 11.6875 -12.429688 11.6875 -11.265625 C 11.6875 -9.859375 10.742188 -8.191406 8.859375 -6.265625 L 5.8125 -3.03125 L 12.140625 -3.03125 L 12.140625 0 L 0.90625 0 L 0.90625 -2.46875 L 6.265625 -8.15625 C 7.222656 -9.15625 7.703125 -10.015625 7.703125 -10.734375 C 7.703125 -11.160156 7.550781 -11.492188 7.25 -11.734375 C 6.945312 -11.972656 6.53125 -12.09375 6 -12.09375 C 4.757812 -12.09375 3.394531 -11.457031 1.90625 -10.1875 L 0.46875 -12.9375 C 2.46875 -14.4375 4.5 -15.1875 6.5625 -15.1875 Z M 6.5625 -15.1875 "/></g></g></g><g fill="#ffffff" fill-opacity="1"><g transform="translate(173.160841, 289.243973)"><g><path d="M 7.546875 -15.140625 C 9.679688 -15.140625 11.320312 -14.484375 12.46875 -13.171875 C 13.613281 -11.859375 14.1875 -9.976562 14.1875 -7.53125 C 14.1875 -5.070312 13.613281 -3.179688 12.46875 -1.859375 C 11.320312 -0.546875 9.679688 0.109375 7.546875 0.109375 C 5.398438 0.109375 3.75 -0.546875 2.59375 -1.859375 C 1.445312 -3.179688 0.875 -5.070312 0.875 -7.53125 C 0.875 -9.976562 1.445312 -11.859375 2.59375 -13.171875 C 3.75 -14.484375 5.398438 -15.140625 7.546875 -15.140625 Z M 7.546875 -12.359375 C 6.578125 -12.359375 5.878906 -11.984375 5.453125 -11.234375 C 5.023438 -10.484375 4.8125 -9.25 4.8125 -7.53125 C 4.8125 -5.8125 5.023438 -4.570312 5.453125 -3.8125 C 5.878906 -3.0625 6.578125 -2.6875 7.546875 -2.6875 C 8.492188 -2.6875 9.1875 -3.066406 9.625 -3.828125 C 10.0625 -4.597656 10.28125 -5.832031 10.28125 -7.53125 C 10.28125 -9.226562 10.0625 -10.457031 9.625 -11.21875 C 9.1875 -11.976562 8.492188 -12.359375 7.546875 -12.359375 Z M 7.546875 -12.359375 "/></g></g></g><g fill="#ffffff" fill-opacity="1"><g transform="translate(188.238744, 289.243973)"><g><path d="M 6.5625 -15.1875 C 8.0625 -15.1875 9.289062 -14.820312 10.25 -14.09375 C 11.207031 -13.375 11.6875 -12.429688 11.6875 -11.265625 C 11.6875 -9.859375 10.742188 -8.191406 8.859375 -6.265625 L 5.8125 -3.03125 L 12.140625 -3.03125 L 12.140625 0 L 0.90625 0 L 0.90625 -2.46875 L 6.265625 -8.15625 C 7.222656 -9.15625 7.703125 -10.015625 7.703125 -10.734375 C 7.703125 -11.160156 7.550781 -11.492188 7.25 -11.734375 C 6.945312 -11.972656 6.53125 -12.09375 6 -12.09375 C 4.757812 -12.09375 3.394531 -11.457031 1.90625 -10.1875 L 0.46875 -12.9375 C 2.46875 -14.4375 4.5 -15.1875 6.5625 -15.1875 Z M 6.5625 -15.1875 "/></g></g></g><g fill="#ffffff" fill-opacity="1"><g transform="translate(201.107506, 289.243973)"><g><path d="M 4.53125 -6.203125 L 7.703125 -6.203125 L 7.703125 -9.421875 L 11.234375 -9.421875 L 11.234375 -6.203125 L 13.28125 -6.203125 L 13.28125 -3.296875 L 11.234375 -3.296875 L 11.234375 0 L 7.703125 0 L 7.703125 -3.296875 L 0.578125 -3.296875 L 0.578125 -5.859375 L 5.328125 -15.015625 L 8.984375 -15.015625 Z M 4.53125 -6.203125 "/></g></g></g><g clip-path="url(#8979a482e9)"><path fill="#ffffff" d="M 281.992188 187.5 L 284.417969 192.957031 C 284.511719 193.167969 284.660156 193.347656 284.84375 193.484375 C 285.03125 193.621094 285.246094 193.703125 285.476562 193.726562 L 291.417969 194.347656 L 286.976562 198.34375 C 286.804688 198.5 286.679688 198.695312 286.609375 198.914062 C 286.535156 199.128906 286.523438 199.363281 286.574219 199.585938 L 287.816406 205.429688 L 282.644531 202.441406 C 282.445312 202.328125 282.21875 202.265625 281.992188 202.265625 C 281.761719 202.265625 281.535156 202.328125 281.335938 202.441406 L 276.164062 205.429688 L 277.410156 199.585938 C 277.457031 199.363281 277.445312 199.128906 277.375 198.914062 C 277.300781 198.695312 277.175781 198.5 277.003906 198.34375 L 272.5625 194.347656 L 278.503906 193.726562 C 278.734375 193.703125 278.953125 193.621094 279.136719 193.484375 C 279.324219 193.347656 279.46875 193.167969 279.5625 192.957031 Z M 281.992188 187.5 " fill-opacity="1" fill-rule="evenodd"/></g></svg>